Coordinates
version=1
nRows=11
nColumns=63
inDegrees=yes

Units are S.I. units (second, meters, Newtons, ...)
If the header above contains a line with 'inDegrees', this indicates whether rotational values are in degrees (yes) or radians (no).

endheader
time	pelvis_tilt	pelvis_list	pelvis_rotation	pelvis_tx	pelvis_ty	pelvis_tz	hip_flexion_r	hip_adduction_r	hip_rotation_r	knee_angle_r	knee_angle_r_beta	ankle_angle_r	subtalar_angle_r	mtp_angle_r	hip_flexion_l	hip_adduction_l	hip_rotation_l	knee_angle_l	knee_angle_l_beta	ankle_angle_l	subtalar_angle_l	mtp_angle_l	L5_S1_Flex_Ext	L5_S1_Lat_Bending	L5_S1_axial_rotation	L4_L5_Flex_Ext	L4_L5_Lat_Bending	L4_L5_axial_rotation	L3_L4_Flex_Ext	L3_L4_Lat_Bending	L3_L4_axial_rotation	L2_L3_Flex_Ext	L2_L3_Lat_Bending	L2_L3_axial_rotation	L1_L2_Flex_Ext	L1_L2_Lat_Bending	L1_L2_axial_rotation	L1_T12_Flex_Ext	L1_T12_Lat_Bending	L1_T12_axial_rotation	Abs_r3	Abs_r2	Abs_r1	Abs_t1	Abs_t2	neck_flexion	neck_bending	neck_rotation	arm_flex_r	arm_add_r	arm_rot_r	elbow_flex_r	pro_sup_r	wrist_flex_r	wrist_dev_r	arm_flex_l	arm_add_l	arm_rot_l	elbow_flex_l	pro_sup_l	wrist_flex_l	wrist_dev_l
2.148936	-1.138912	-3.945617	98.014983	0.246655	0.782200	0.551506	-4.639454	1.584282	2.613989	0.412212	0.007194	15.940779	-15.118797	0.000000	-4.989252	-1.465836	-2.124893	0.467294	0.008156	25.604827	4.312272	0.000000	-0.080829	0.012231	-0.043299	-0.150108	0.016267	-0.046005	-0.132794	0.029737	-0.046005	-0.092380	0.029737	-0.037887	-0.075058	0.024941	-0.035180	-0.046186	0.018945	-0.032474	-0.577354	0.138355	-0.240816	0.000000	0.000000	7.265533	-1.788758	-1.821717	-16.809188	-18.174053	11.611647	121.544939	85.964134	-2.206724	32.437847	-15.891783	-23.188229	14.124284	117.210857	88.919138	0.728797	28.975610
2.170213	-1.195814	-3.882139	97.891632	0.246838	0.781373	0.551892	-4.708102	1.514090	2.702946	0.409213	0.007142	16.105363	-15.064657	0.000000	-5.068267	-1.399179	-1.875915	0.462493	0.008072	25.770584	3.831047	0.000000	-0.086384	0.013329	-0.006911	-0.160423	0.017728	-0.007343	-0.141920	0.032408	-0.007343	-0.098728	0.032408	-0.006047	-0.080216	0.027180	-0.005615	-0.049360	0.020647	-0.005183	-0.617030	0.150780	-0.038435	0.000000	0.000000	6.999294	-1.979508	-1.479074	-18.010871	-18.453298	13.055480	121.083386	84.439064	-2.430740	31.742242	-16.732921	-23.308668	14.374638	116.550189	89.032751	3.292743	29.126172
2.191489	-1.231305	-3.814783	97.704163	0.247039	0.780587	0.552376	-4.750839	1.449551	2.925999	0.403721	0.007046	16.371768	-14.975539	0.000000	-5.148359	-1.345516	-1.703604	0.458706	0.008006	25.897164	3.362649	0.000000	-0.094137	0.018817	0.056003	-0.174823	0.025026	0.059503	-0.154658	0.045751	0.059503	-0.107590	0.045751	0.049002	-0.087416	0.038371	0.045502	-0.053790	0.029147	0.042002	-0.672415	0.212858	0.311471	0.000000	0.000000	6.699575	-2.216371	-1.238717	-19.170540	-18.661724	14.288461	120.866369	83.010793	-2.899929	30.980754	-17.339832	-23.337174	14.523035	116.016773	89.124669	5.461772	28.988499
2.212766	-1.260341	-3.748986	97.431384	0.247295	0.779881	0.552907	-4.765548	1.375095	3.328055	0.396408	0.006919	16.729630	-14.895867	0.000000	-5.228621	-1.287888	-1.624141	0.454208	0.007927	25.985417	2.900439	0.000000	-0.104352	0.026218	0.145970	-0.193792	0.034870	0.155093	-0.171440	0.063747	0.155093	-0.119264	0.063747	0.127723	-0.096901	0.053465	0.118600	-0.059627	0.040612	0.109477	-0.745375	0.296588	0.811839	0.000000	0.000000	6.415228	-2.465512	-1.064352	-20.261622	-18.787870	15.309050	120.857385	81.773234	-3.629405	30.105005	-17.730619	-23.243304	14.516145	115.671318	89.189752	7.201630	28.746641
2.234043	-1.269296	-3.674455	97.060367	0.247611	0.779340	0.553488	-4.762800	1.304403	3.905451	0.387918	0.006770	17.152079	-14.812556	0.000000	-5.316409	-1.239024	-1.650267	0.450868	0.007869	26.045891	2.424173	0.000000	-0.117863	0.036617	0.266267	-0.218884	0.048700	0.282908	-0.193638	0.089030	0.282908	-0.134706	0.089030	0.232983	-0.109448	0.074669	0.216342	-0.067347	0.056719	0.199700	-0.841887	0.414215	1.480895	0.000000	0.000000	6.119288	-2.723810	-1.030828	-21.225139	-18.810148	16.067047	121.007910	80.756335	-4.628631	29.173629	-17.897017	-22.997534	14.366574	115.496821	89.220431	8.468327	28.424986
2.255319	-1.276425	-3.649039	96.686972	0.247914	0.778918	0.554011	-4.699165	1.224219	4.574528	0.377616	0.006591	17.602646	-14.774545	0.000000	-5.348011	-1.186238	-1.744002	0.445517	0.007776	26.083987	2.031524	0.000000	-0.123499	0.045100	0.400107	-0.229349	0.059983	0.425114	-0.202896	0.109656	0.425114	-0.141147	0.109656	0.350094	-0.114681	0.091968	0.325087	-0.070567	0.069860	0.300080	-0.882138	0.510182	2.225277	0.000000	0.000000	5.780009	-2.895379	-1.082755	-22.071865	-18.672200	16.480351	121.277704	79.994680	-5.753386	28.125679	-17.897994	-22.654394	14.141598	115.559176	89.223222	9.108414	28.075268
2.276596	-1.279491	-3.633090	96.269392	0.248208	0.778677	0.554500	-4.615088	1.135175	5.361468	0.365370	0.006377	18.053266	-14.760468	0.000000	-5.369167	-1.128799	-1.938816	0.438721	0.007657	26.113592	1.711214	0.000000	-0.128717	0.051977	0.546101	-0.239040	0.069129	0.580232	-0.211469	0.126376	0.580232	-0.147111	0.126376	0.477838	-0.119527	0.105991	0.443707	-0.073549	0.080512	0.409576	-0.919412	0.587970	3.037250	0.000000	0.000000	5.428587	-2.998397	-1.285520	-22.673650	-18.445696	16.592823	121.611757	79.520423	-6.966975	26.982451	-17.785296	-22.205902	13.839792	115.882704	89.191225	9.103160	27.722480
2.297872	-1.295859	-3.630340	95.886320	0.248439	0.778605	0.554975	-4.517824	1.028023	6.152509	0.351790	0.006140	18.488903	-14.764968	0.000000	-5.368167	-1.057976	-2.175335	0.433760	0.007571	26.134620	1.491246	0.000000	-0.133263	0.053654	0.667539	-0.247482	0.071360	0.709260	-0.218937	0.130455	0.709260	-0.152306	0.130455	0.584097	-0.123748	0.109412	0.542375	-0.076146	0.083111	0.500654	-0.951881	0.606948	3.712652	0.000000	0.000000	5.073725	-3.003175	-1.567469	-22.873683	-18.165897	16.528146	121.901042	79.419844	-8.063562	25.698218	-17.704000	-21.646666	13.336709	116.524189	89.141029	8.518217	27.480044
2.319149	-1.308736	-3.641963	95.485973	0.248639	0.778656	0.555418	-4.405943	0.916597	6.968228	0.340249	0.005938	18.864293	-14.790721	0.000000	-5.352556	-0.985380	-2.509203	0.429187	0.007491	26.175808	1.382172	0.000000	-0.135745	0.052620	0.770737	-0.252092	0.069984	0.818908	-0.223016	0.127940	0.818908	-0.155143	0.127940	0.674395	-0.126053	0.107302	0.626224	-0.077565	0.081508	0.578053	-0.969614	0.595246	4.286608	0.000000	0.000000	4.709874	-2.937304	-1.906308	-22.655397	-17.926242	16.376410	122.152112	79.663061	-9.133081	24.234840	-17.677539	-21.020179	12.709993	117.438559	89.074788	7.373312	27.301181
2.340426	-1.309906	-3.645101	95.127283	0.248726	0.778829	0.555861	-4.310160	0.818111	7.721587	0.333588	0.005822	19.131902	-14.844771	0.000000	-5.338089	-0.926124	-2.859703	0.426451	0.007443	26.232062	1.351561	0.000000	-0.138906	0.051139	0.837902	-0.257962	0.068014	0.890271	-0.228208	0.124338	0.890271	-0.158755	0.124338	0.733164	-0.128988	0.104282	0.680795	-0.079371	0.079214	0.628427	-0.992191	0.578489	4.660160	0.000000	0.000000	4.305604	-2.861704	-2.220702	-22.028892	-17.743012	16.141436	122.381463	80.239494	-9.829416	22.702765	-17.754229	-20.348638	11.926842	118.578481	89.000772	5.896097	27.246376
2.361702	-1.308970	-3.659026	94.789112	0.248754	0.779042	0.556301	-4.212868	0.722732	8.396302	0.335453	0.005855	19.306233	-14.906047	0.000000	-5.310378	-0.868863	-3.223485	0.425926	0.007434	26.307470	1.380926	0.000000	-0.139665	0.048411	0.866807	-0.259373	0.064386	0.920982	-0.229456	0.117705	0.920982	-0.159624	0.117705	0.758456	-0.129693	0.098719	0.704280	-0.079805	0.074988	0.650105	-0.997616	0.547630	4.820919	0.000000	0.000000	3.881822	-2.760755	-2.413658	-21.032665	-17.663487	15.959638	122.612667	81.138231	-10.170793	21.145188	-17.987644	-19.701624	10.957884	119.895363	88.935576	4.490896	27.263801
